# xmcd
# 
# Track frame offsets:
#     150
#     23741
#     44356
#     70736
#     91752
#     113477
#     131743
#     150573
#     171015
#     192991
#     215750
#     231524
# 
# Disc length: 3332
# 
# Revision: 0
# Processed by: cddbd v1.5.2PL0 Copyright (c) Steve Scherf et al.
# Submitted via: fre:ac v1.0.31
# 
DISCID=9e0d020c
DTITLE=Various Artist - Blues Mix, vol. 21: Booty Shakin' Soul
DYEAR=2016
DGENRE=Blues
TTITLE0=O.B. Buchana - It's Booty Shakin' Time
TTITLE1=Jaye Hammer - Making That Booty Roll
TTITLE2=Sonny Mack - Get On Up! (remix)
TTITLE3=Ms. Jody - Ms. Jody's Boogie Slide
TTITLE4=O.B. Buchana - Why Can't I Be Your Lover
TTITLE5=Quinn Golden - Bottoms Up
TTITLE6=David Brinston - I Came To Party
TTITLE7=Ms. Jody - Shake a Tail Feather
TTITLE8=Donnie Ray - It Sho Wasn't Her
TTITLE9=Jaye Hammer - I Ain't Leavin' Mississippi
TTITLE10=Quinn Golden - Can You Pop That Trunk
TTITLE11=Mystery Man - Hole In the Wall Cafe'
EXTD=
EXTT0=
EXTT1=
EXTT2=
EXTT3=
EXTT4=
EXTT5=
EXTT6=
EXTT7=
EXTT8=
EXTT9=
EXTT10=
EXTT11=
PLAYORDER=
